<?xml version="1.0" encoding="UTF-8" standalone="no"?>
<!DOCTYPE svg PUBLIC "-//W3C//DTD SVG 1.1//EN" "http://www.w3.org/Graphics/SVG/1.1/DTD/svg11.dtd">
<svg width="100%" height="100%" viewBox="0 0 588 314" version="1.1" xmlns="http://www.w3.org/2000/svg" xmlns:xlink="http://www.w3.org/1999/xlink" xml:space="preserve" xmlns:serif="http://www.serif.com/" style="fill-rule:evenodd;clip-rule:evenodd;stroke-linejoin:round;stroke-miterlimit:2;">
    <g id="Layer-2" serif:id="Layer 2" transform="matrix(1.3326,0,0,1.33299,-984.287,-564.688)">
        <g transform="matrix(1,0,0,1,967.477,557.609)">
            <path d="M0,16.923L8.527,9.083C9.357,8.277 10.006,7.606 10.475,7.07C10.943,6.536 11.305,6.001 11.555,5.467C11.807,4.932 11.932,4.36 11.932,3.748C11.932,3.071 11.768,2.477 11.441,1.964C11.113,1.451 10.666,1.056 10.1,0.777C9.531,0.499 8.887,0.361 8.168,0.361C7.426,0.361 6.779,0.508 6.229,0.802C5.678,1.097 5.248,1.523 4.943,2.078C4.637,2.635 4.484,3.29 4.484,4.043L-0.195,4.043C-0.195,2.515 0.152,1.179 0.852,0.032C1.549,-1.113 2.537,-1.997 3.814,-2.619C5.09,-3.24 6.559,-3.552 8.217,-3.552C9.887,-3.552 11.361,-3.257 12.645,-2.668C13.926,-2.078 14.916,-1.255 15.615,-0.196C16.312,0.862 16.662,2.073 16.662,3.437C16.662,4.375 16.484,5.273 16.129,6.129C15.775,6.986 15.15,7.941 14.256,8.993C13.361,10.047 12.102,11.31 10.475,12.782L6.857,16.269L6.857,16.432L17.006,16.432L17.006,20.475L0.018,20.475L0,16.923Z" style="fill:white;fill-rule:nonzero;"/>
        </g>
        <g transform="matrix(1,0,0,1,998.257,559.016)">
            <path d="M0,14.436C0.682,13.836 1.199,12.93 1.555,11.719C1.908,10.508 2.08,9.008 2.07,7.218C2.07,5.451 1.891,3.958 1.529,2.742C1.17,1.526 0.652,0.612 -0.025,-0C-0.701,-0.61 -1.498,-0.916 -2.414,-0.916C-3.342,-0.916 -4.139,-0.61 -4.805,-0C-5.469,0.612 -5.988,1.526 -6.359,2.742C-6.73,3.958 -6.914,5.451 -6.914,7.218C-6.914,9.008 -6.73,10.508 -6.359,11.719C-5.988,12.93 -5.473,13.836 -4.812,14.436C-4.152,15.037 -3.354,15.336 -2.414,15.336C-1.486,15.336 -0.682,15.037 0,14.436M-7.512,17.963C-8.936,17.008 -10.027,15.621 -10.785,13.797C-11.545,11.976 -11.924,9.783 -11.924,7.218C-11.924,4.665 -11.545,2.475 -10.785,0.647C-10.027,-1.18 -8.936,-2.572 -7.512,-3.526C-6.088,-4.481 -4.389,-4.959 -2.414,-4.959C-0.451,-4.959 1.246,-4.481 2.676,-3.526C4.105,-2.572 5.201,-1.18 5.965,0.647C6.729,2.475 7.111,4.665 7.111,7.218C7.111,9.793 6.732,11.992 5.975,13.814C5.215,15.636 4.121,17.022 2.691,17.971C1.262,18.92 -0.439,19.395 -2.414,19.395C-4.389,19.395 -6.088,18.918 -7.512,17.963" style="fill:white;fill-rule:nonzero;"/>
        </g>
        <g transform="matrix(1,0,0,1,1007.4,557.609)">
            <path d="M0,16.923L8.527,9.083C9.355,8.277 10.006,7.606 10.475,7.07C10.943,6.536 11.303,6.001 11.555,5.467C11.805,4.932 11.932,4.36 11.932,3.748C11.932,3.071 11.768,2.477 11.439,1.964C11.113,1.451 10.664,1.056 10.098,0.777C9.531,0.499 8.887,0.361 8.166,0.361C7.424,0.361 6.777,0.508 6.227,0.802C5.676,1.097 5.248,1.523 4.941,2.078C4.637,2.635 4.484,3.29 4.484,4.043L-0.197,4.043C-0.197,2.515 0.152,1.179 0.852,0.032C1.549,-1.113 2.537,-1.997 3.813,-2.619C5.09,-3.24 6.557,-3.552 8.215,-3.552C9.885,-3.552 11.361,-3.257 12.643,-2.668C13.924,-2.078 14.914,-1.255 15.613,-0.196C16.311,0.862 16.66,2.073 16.66,3.437C16.66,4.375 16.482,5.273 16.129,6.129C15.773,6.986 15.15,7.941 14.254,8.993C13.359,10.047 12.1,11.31 10.475,12.782L6.857,16.269L6.857,16.432L17.004,16.432L17.004,20.475L0.016,20.475L0,16.923Z" style="fill:white;fill-rule:nonzero;"/>
        </g>
        <g transform="matrix(1,0,0,1,1030.72,554.941)">
            <path d="M0,22.586C-1.352,21.997 -2.418,21.17 -3.199,20.107C-3.979,19.043 -4.381,17.829 -4.402,16.465L0.557,16.465C0.58,17.044 0.775,17.554 1.146,17.995C1.518,18.438 2.004,18.781 2.604,19.026C3.203,19.272 3.879,19.395 4.633,19.395C5.418,19.395 6.121,19.259 6.744,18.985C7.365,18.713 7.846,18.331 8.184,17.84C8.521,17.349 8.686,16.792 8.676,16.17C8.676,15.538 8.498,14.968 8.143,14.46C7.789,13.953 7.27,13.56 6.588,13.281C5.906,13.004 5.107,12.864 4.191,12.864L1.98,12.864L1.98,9.232L4.191,9.232C4.965,9.232 5.652,9.098 6.254,8.83C6.854,8.563 7.32,8.191 7.652,7.717C7.984,7.242 8.152,6.694 8.152,6.072C8.152,5.483 8.006,4.957 7.719,4.493C7.428,4.029 7.021,3.669 6.498,3.413C5.975,3.156 5.369,3.028 4.682,3.028C3.982,3.028 3.346,3.15 2.768,3.397C2.188,3.642 1.719,3.993 1.359,4.452C1,4.91 0.809,5.434 0.787,6.024L-3.928,6.024C-3.906,4.692 -3.512,3.497 -2.748,2.439C-1.984,1.381 -0.957,0.563 0.336,-0.017C1.629,-0.595 3.078,-0.884 4.682,-0.884C6.307,-0.884 7.742,-0.592 8.986,-0.008C10.23,0.576 11.193,1.378 11.875,2.398C12.557,3.418 12.893,4.545 12.881,5.777C12.893,6.65 12.713,7.439 12.342,8.143C11.971,8.847 11.443,9.425 10.762,9.877C10.08,10.33 9.291,10.639 8.396,10.802L8.396,10.982C9.543,11.124 10.521,11.44 11.334,11.932C12.148,12.423 12.762,13.059 13.176,13.838C13.59,14.618 13.793,15.505 13.781,16.498C13.793,17.829 13.408,19.023 12.627,20.082C11.848,21.141 10.76,21.97 9.363,22.569C7.967,23.17 6.389,23.47 4.633,23.47C2.898,23.47 1.354,23.176 0,22.586" style="fill:white;fill-rule:nonzero;"/>
        </g>
        <g transform="matrix(1,0,0,1,1072.95,554.385)">
            <path d="M0,23.699L-4.254,23.699L-14.664,8.641L-14.844,8.641L-14.844,23.699L-19.754,23.699L-19.754,0L-15.434,0L-5.105,15.041L-4.893,15.041L-4.893,0L0,0L0,23.699Z" style="fill:white;fill-rule:nonzero;"/>
        </g>
        <g transform="matrix(1,0,0,1,1090.57,572.084)">
            <path d="M0,-11.701C-0.465,-12.34 -1.061,-12.828 -1.793,-13.166C-2.523,-13.504 -3.348,-13.674 -4.264,-13.674C-5.508,-13.674 -6.588,-13.365 -7.504,-12.749C-8.42,-12.133 -9.135,-11.237 -9.648,-10.064C-10.162,-8.891 -10.418,-7.487 -10.418,-5.85C-10.418,-4.18 -10.162,-2.765 -9.648,-1.603C-9.135,-0.441 -8.424,0.443 -7.512,1.048C-6.602,1.653 -5.535,1.962 -4.312,1.973C-3.406,1.962 -2.592,1.796 -1.865,1.474C-1.141,1.153 -0.541,0.689 -0.066,0.082C0.408,-0.523 0.729,-1.246 0.893,-2.086L5.883,-2.037C5.687,-0.542 5.152,0.841 4.279,2.112C3.406,3.383 2.229,4.403 0.744,5.173C-0.74,5.942 -2.447,6.326 -4.379,6.326C-6.506,6.326 -8.402,5.844 -10.066,4.878C-11.73,3.912 -13.033,2.511 -13.977,0.672C-14.922,-1.167 -15.393,-3.341 -15.393,-5.85C-15.393,-8.371 -14.916,-10.55 -13.961,-12.388C-13.006,-14.227 -11.697,-15.627 -10.033,-16.587C-8.369,-17.547 -6.484,-18.027 -4.379,-18.027C-2.557,-18.027 -0.908,-17.691 0.564,-17.02C2.037,-16.349 3.234,-15.365 4.156,-14.066C5.078,-12.767 5.654,-11.223 5.883,-9.434L0.893,-9.434C0.762,-10.307 0.463,-11.063 0,-11.701" style="fill:white;fill-rule:nonzero;"/>
        </g>
        <g transform="matrix(1,0,0,1,969.85,592.996)">
            <path d="M0,23.699L0,19.476L5.941,19.476C7.459,19.476 8.727,19.204 9.746,18.658C10.768,18.113 11.533,17.278 12.047,16.154C12.559,15.03 12.816,13.59 12.816,11.833C12.816,10.088 12.557,8.65 12.039,7.52C11.52,6.391 10.756,5.559 9.746,5.025C8.738,4.49 7.48,4.222 5.975,4.222L-0.113,4.222L-0.113,0L6.221,0C8.588,0 10.639,0.47 12.373,1.408C14.109,2.346 15.438,3.707 16.359,5.491C17.281,7.275 17.742,9.389 17.742,11.833C17.742,14.288 17.277,16.405 16.352,18.183C15.424,19.962 14.09,21.326 12.35,22.275C10.609,23.224 8.545,23.699 6.154,23.699L0,23.699ZM2.717,23.699L-2.193,23.699L-2.193,0L2.717,0L2.717,23.699Z" style="fill:white;fill-rule:nonzero;"/>
        </g>
        <g transform="matrix(1,0,0,1,989.819,616.695)">
            <path d="M0,-23.699L15.91,-23.699L15.91,-19.639L4.91,-19.639L4.91,-13.879L15.074,-13.879L15.074,-9.836L4.91,-9.836L4.91,-4.058L15.941,-4.058L15.941,0L0,0L0,-23.699Z" style="fill:white;fill-rule:nonzero;"/>
        </g>
        <g transform="matrix(1,0,0,1,1018.1,598.626)">
            <path d="M0,12.439L0.229,12.439L6.008,-5.63L11.473,-5.63L3.273,18.069L-3.043,18.069L-11.227,-5.63L-5.777,-5.63L0,12.439Z" style="fill:white;fill-rule:nonzero;"/>
        </g>
        <g transform="matrix(1,0,0,1,1030.92,616.695)">
            <path d="M0,-23.699L15.908,-23.699L15.908,-19.639L4.91,-19.639L4.91,-13.879L15.074,-13.879L15.074,-9.836L4.91,-9.836L4.91,-4.058L15.941,-4.058L15.941,0L0,0L0,-23.699Z" style="fill:white;fill-rule:nonzero;"/>
        </g>
        <g transform="matrix(1,0,0,1,1049.3,616.695)">
            <path d="M0,-23.699L4.91,-23.699L4.91,-4.058L15.105,-4.058L15.105,0L0,0L0,-23.699Z" style="fill:white;fill-rule:nonzero;"/>
        </g>
        <g transform="matrix(1,0,0,1,1081.27,609.1)">
            <path d="M0,-8.51C-0.496,-9.678 -1.201,-10.565 -2.119,-11.17C-3.035,-11.776 -4.109,-12.078 -5.342,-12.078C-6.564,-12.078 -7.631,-11.776 -8.543,-11.17C-9.453,-10.565 -10.162,-9.678 -10.67,-8.51C-11.178,-7.343 -11.432,-5.924 -11.432,-4.255C-11.432,-2.596 -11.178,-1.186 -10.67,-0.025C-10.162,1.137 -9.453,2.024 -8.543,2.636C-7.631,3.247 -6.564,3.557 -5.342,3.568C-4.109,3.557 -3.035,3.247 -2.119,2.636C-1.201,2.024 -0.496,1.137 0,-0.025C0.498,-1.186 0.746,-2.596 0.746,-4.255C0.746,-5.924 0.498,-7.343 0,-8.51M4.289,2.275C3.334,4.108 2.02,5.508 0.344,6.473C-1.33,7.439 -3.227,7.922 -5.342,7.922C-7.459,7.922 -9.355,7.439 -11.029,6.473C-12.705,5.508 -14.02,4.106 -14.975,2.267C-15.93,0.428 -16.406,-1.745 -16.406,-4.255C-16.406,-6.776 -15.93,-8.954 -14.975,-10.793C-14.02,-12.632 -12.705,-14.031 -11.029,-14.991C-9.355,-15.951 -7.459,-16.432 -5.342,-16.432C-3.227,-16.432 -1.33,-15.951 0.344,-14.991C2.02,-14.031 3.334,-12.632 4.289,-10.793C5.244,-8.954 5.721,-6.776 5.721,-4.255C5.721,-1.735 5.244,0.442 4.289,2.275" style="fill:white;fill-rule:nonzero;"/>
        </g>
        <g transform="matrix(1,0,0,1,1089.22,616.695)">
            <path d="M0,-23.699L9.264,-23.699C11.031,-23.699 12.557,-23.363 13.838,-22.692C15.121,-22.021 16.094,-21.08 16.76,-19.869C17.426,-18.658 17.758,-17.266 17.758,-15.695C17.758,-14.113 17.42,-12.724 16.744,-11.53C16.066,-10.336 15.08,-9.402 13.781,-8.731C12.482,-8.06 10.939,-7.724 9.15,-7.724L3.191,-7.724L3.191,-11.685L8.381,-11.685C9.33,-11.685 10.129,-11.851 10.777,-12.184C11.428,-12.517 11.91,-12.984 12.227,-13.584C12.543,-14.184 12.701,-14.887 12.701,-15.695C12.701,-16.503 12.543,-17.204 12.227,-17.799C11.91,-18.393 11.424,-18.851 10.77,-19.174C10.115,-19.495 9.314,-19.656 8.363,-19.656L4.91,-19.656L4.91,0L0,0L0,-23.699Z" style="fill:white;fill-rule:nonzero;"/>
        </g>
        <g transform="matrix(1,0,0,1,1108.76,616.695)">
            <path d="M0,-23.699L15.91,-23.699L15.91,-19.639L4.91,-19.639L4.91,-13.879L15.074,-13.879L15.074,-9.836L4.91,-9.836L4.91,-4.058L15.941,-4.058L15.941,0L0,0L0,-23.699Z" style="fill:white;fill-rule:nonzero;"/>
        </g>
        <g transform="matrix(1,0,0,1,1145.75,592.996)">
            <path d="M0,23.699L-5.467,23.699L-11.211,12.929L-5.893,12.929L0,23.699ZM-18.609,0L-9.346,0C-7.566,0 -6.039,0.314 -4.762,0.941C-3.486,1.569 -2.516,2.467 -1.85,3.634C-1.184,4.802 -0.852,6.165 -0.852,7.725C-0.852,9.286 -1.186,10.633 -1.857,11.767C-2.527,12.903 -3.51,13.772 -4.803,14.379C-6.096,14.984 -7.648,15.287 -9.459,15.287L-15.729,15.287L-15.729,11.277L-10.229,11.277C-9.27,11.277 -8.467,11.143 -7.822,10.876C-7.18,10.608 -6.699,10.216 -6.383,9.697C-6.066,9.179 -5.908,8.522 -5.908,7.725C-5.908,6.928 -6.066,6.252 -6.383,5.696C-6.699,5.139 -7.182,4.724 -7.832,4.452C-8.48,4.179 -9.285,4.043 -10.246,4.043L-13.699,4.043L-13.699,23.699L-18.609,23.699L-18.609,0Z" style="fill:white;fill-rule:nonzero;"/>
        </g>
        <g transform="matrix(1,0,0,1,1159.22,611.55)">
            <path d="M0,-13.398C-0.338,-13.845 -0.805,-14.184 -1.398,-14.413C-1.994,-14.642 -2.693,-14.756 -3.502,-14.756C-4.309,-14.756 -5.002,-14.642 -5.58,-14.413C-6.158,-14.184 -6.6,-13.865 -6.906,-13.456C-7.211,-13.046 -7.363,-12.58 -7.363,-12.056C-7.387,-11.249 -7.059,-10.619 -6.383,-10.166C-5.705,-9.713 -4.773,-9.35 -3.584,-9.078L-1.455,-8.57C0.781,-8.057 2.523,-7.245 3.773,-6.131C5.023,-5.019 5.646,-3.513 5.646,-1.615C5.646,-0.174 5.285,1.081 4.559,2.15C3.834,3.219 2.781,4.04 1.4,4.613C0.02,5.186 -1.625,5.472 -3.535,5.472C-5.455,5.483 -7.115,5.191 -8.518,4.597C-9.92,4.002 -11.012,3.129 -11.791,1.978C-12.572,0.827 -12.988,-0.584 -13.043,-2.252L-8.264,-2.252C-8.209,-1.478 -7.98,-0.821 -7.576,-0.281C-7.174,0.259 -6.631,0.664 -5.949,0.93C-5.266,1.198 -4.479,1.331 -3.584,1.331C-2.732,1.331 -1.984,1.206 -1.342,0.956C-0.697,0.705 -0.201,0.355 0.148,-0.092C0.498,-0.54 0.672,-1.058 0.672,-1.647C0.672,-2.17 0.52,-2.618 0.213,-2.989C-0.092,-3.36 -0.537,-3.671 -1.121,-3.922C-1.703,-4.173 -2.453,-4.413 -3.371,-4.642L-5.973,-5.264C-8.047,-5.777 -9.639,-6.56 -10.752,-7.613C-11.865,-8.666 -12.416,-10.038 -12.404,-11.729C-12.404,-13.136 -12.023,-14.385 -11.26,-15.477C-10.496,-16.568 -9.434,-17.408 -8.076,-17.998C-6.717,-18.586 -5.176,-18.881 -3.453,-18.881C-1.729,-18.881 -0.203,-18.584 1.121,-17.989C2.447,-17.394 3.477,-16.557 4.207,-15.477C4.937,-14.397 5.309,-13.164 5.32,-11.778L0.59,-11.778C0.535,-12.411 0.34,-12.951 0,-13.398" style="fill:white;fill-rule:nonzero;"/>
        </g>
        <g transform="matrix(1,0,0,1,967.657,655.305)">
            <path d="M0,-23.699L9.264,-23.699C11.031,-23.699 12.557,-23.363 13.838,-22.692C15.121,-22.021 16.094,-21.08 16.76,-19.869C17.426,-18.658 17.758,-17.266 17.758,-15.695C17.758,-14.113 17.42,-12.724 16.744,-11.53C16.066,-10.336 15.08,-9.402 13.781,-8.731C12.482,-8.06 10.939,-7.724 9.15,-7.724L3.191,-7.724L3.191,-11.685L8.381,-11.685C9.33,-11.685 10.129,-11.851 10.777,-12.184C11.428,-12.517 11.91,-12.984 12.227,-13.584C12.543,-14.184 12.701,-14.887 12.701,-15.695C12.701,-16.503 12.543,-17.204 12.227,-17.799C11.91,-18.393 11.424,-18.851 10.77,-19.174C10.115,-19.495 9.314,-19.656 8.363,-19.656L4.91,-19.656L4.91,0L0,0L0,-23.699Z" style="fill:white;fill-rule:nonzero;"/>
        </g>
        <g transform="matrix(1,0,0,1,0,206.911)">
            <path d="M1000.79,442.927L988.134,442.927L988.134,439.081L1000.79,439.081L1000.79,442.927ZM983.142,448.394L991.325,424.695L997.643,424.695L1005.84,448.394L1000.56,448.394L994.583,430.047L994.386,430.047L988.395,448.394L983.142,448.394Z" style="fill:white;fill-rule:nonzero;"/>
        </g>
        <g transform="matrix(1,0,0,1,1025.8,631.606)">
            <path d="M0,23.699L-5.467,23.699L-11.211,12.929L-5.893,12.929L0,23.699ZM-18.609,0L-9.346,0C-7.568,0 -6.039,0.314 -4.764,0.941C-3.486,1.569 -2.516,2.467 -1.85,3.634C-1.186,4.802 -0.852,6.165 -0.852,7.725C-0.852,9.286 -1.187,10.633 -1.857,11.767C-2.529,12.903 -3.512,13.772 -4.805,14.379C-6.098,14.984 -7.65,15.287 -9.461,15.287L-15.729,15.287L-15.729,11.277L-10.231,11.277C-9.27,11.277 -8.469,11.143 -7.824,10.876C-7.18,10.608 -6.701,10.216 -6.383,9.697C-6.066,9.179 -5.908,8.522 -5.908,7.725C-5.908,6.928 -6.066,6.252 -6.383,5.696C-6.701,5.139 -7.184,4.724 -7.832,4.452C-8.481,4.179 -9.285,4.043 -10.246,4.043L-13.699,4.043L-13.699,23.699L-18.609,23.699L-18.609,0Z" style="fill:white;fill-rule:nonzero;"/>
        </g>
        <g transform="matrix(1,0,0,1,1026.07,655.305)">
            <path d="M0,-23.699L19.412,-23.699L19.412,-19.639L12.145,-19.639L12.145,0L7.283,0L7.283,-19.639L0,-19.639L0,-23.699Z" style="fill:white;fill-rule:nonzero;"/>
        </g>
        <g transform="matrix(1,0,0,1,1051.31,655.305)">
            <path d="M0,-23.699L5.467,-13.486L5.68,-13.486L11.146,-23.699L16.678,-23.699L8.02,-8.445L8.02,0L3.127,0L3.127,-8.445L-5.516,-23.699L0,-23.699Z" style="fill:white;fill-rule:nonzero;"/>
        </g>
        <g transform="matrix(1,0,0,1,806.49,534.705)">
            <path d="M0,-111.079L0,-67.191L-34.232,-111.079L-67.867,-111.079L-67.867,0L-30.287,0L-30.287,-45.914L5.539,0L37.58,0L37.58,-111.079L0,-111.079Z" style="fill:white;fill-rule:nonzero;"/>
        </g>
        <g transform="matrix(1,0,0,1,1068.63,441.034)">
            <path d="M0,76.263L0,0L-17.408,-17.408L-105.447,-17.408L-105.447,19.618L-38.835,19.618L-38.835,56.645L-105.447,56.645L-105.447,93.671L-17.408,93.671L0,76.263Z" style="fill:white;fill-rule:nonzero;"/>
        </g>
        <g transform="matrix(1,0,0,1,0,-121.669)">
            <path d="M1141.03,593.22L1113.26,593.22L1113.26,584.13L1141.03,584.13L1141.03,593.22ZM1179.87,614.648L1179.87,562.703L1162.46,545.295L1074.42,545.295L1074.42,656.374L1113.26,656.374L1113.26,632.056L1162.46,632.056L1179.87,614.648Z" style="fill:white;fill-rule:nonzero;"/>
        </g>
        <g transform="matrix(1,0,0,1,956.16,441.317)">
            <path d="M0,75.697L0,56.362L-66.612,56.362L-66.612,19.335L0,19.335L0,-0.282L-17.409,-17.691L-88.039,-17.691L-105.447,-0.283L-105.447,75.698L-87.755,93.388L-17.691,93.388L0,75.697Z" style="fill:white;fill-rule:nonzero;"/>
        </g>
        <g transform="matrix(1,0,0,1,956.16,565.517)">
            <path d="M0,76.261L0,-0L-17.408,-17.409L-105.447,-17.409L-105.447,15.695L-38.835,15.695L-38.835,21.578L-105.447,21.578L-105.447,54.683L-38.835,54.683L-38.835,60.565L-105.447,60.565L-105.447,93.67L-17.409,93.67L0,76.261Z" style="fill:white;fill-rule:nonzero;"/>
        </g>
        <g transform="matrix(1,0,0,1,777.459,587.094)">
            <path d="M0,33.105L49.203,33.105L66.612,15.697L66.612,-21.578L49.204,-38.987L-38.835,-38.987L-38.835,-5.882L27.777,-5.882L27.777,0.001L-21.427,0.001L-38.835,17.409L-38.835,72.092L66.612,72.092L66.612,38.988L0,38.988L0,33.105Z" style="fill:white;fill-rule:nonzero;"/>
        </g>
    </g>
</svg>
